<svg viewBox="0 0 820 180" width="100%" height="180" xmlns="http://www.w3.org/2000/svg">
  <defs>
    <filter id="screen-glow" x="-10%" y="-10%" width="120%" height="120%">
      <feGaussianBlur stdDeviation="4" result="blur" />
      <feComposite in="SourceGraphic" in2="blur" operator="over" />
    </filter>
    <filter id="neon-glow" x="-10%" y="-10%" width="120%" height="120%">
      <feGaussianBlur stdDeviation="3" result="blur" />
      <feComposite in="SourceGraphic" in2="blur" operator="over" />
    </filter>
    <pattern id="scanlines" width="100" height="3" patternUnits="userSpaceOnUse">
      <rect width="100" height="1" fill="#000000" opacity="0.25" />
    </pattern>
    <pattern id="grid-dots" width="12.5" height="12.5" patternUnits="userSpaceOnUse">
      <circle cx="6" cy="6" r="1.2" fill="#2d3139" opacity="0.8" />
    </pattern>
    <pattern id="brick-field" x="20" y="30" width="12.5" height="12.5" patternUnits="userSpaceOnUse">
      <rect x="0" y="0" width="10" height="10" rx="1" fill="#45475a" />
      <rect x="0.8" y="0.8" width="8.4" height="1.4" fill="#ffffff" opacity="0.2" />
      <rect x="0.8" y="0.8" width="1.4" height="8.4" fill="#ffffff" opacity="0.16" />
      <rect x="0.8" y="8.2" width="8.4" height="1" fill="#000000" opacity="0.36" />
      <rect x="8.2" y="0.8" width="1" height="8.4" fill="#000000" opacity="0.32" />
    </pattern>

    <!-- Hard block definition -->
    <g id="mini-cube">
      <rect x="0" y="0" width="10" height="10" rx="1.5" />
      <rect x="0.8" y="0.8" width="8.4" height="1.2" fill="#ffffff" opacity="0.4" />
      <rect x="0.8" y="0.8" width="1.2" height="8.4" fill="#ffffff" opacity="0.4" />
      <rect x="0.8" y="8.0" width="8.4" height="1.2" fill="#000000" opacity="0.5" />
      <rect x="8.0" y="0.8" width="1.2" height="8.4" fill="#000000" opacity="0.5" />
    </g>

  </defs>

  <style>
    .retro-font { font-family: 'Fira Code', monospace; font-weight: 900; }

    .lvl1 { fill: #145e39; }
    .lvl2 { fill: #1fb35a; }
    .lvl3 { fill: #3ee27b; }
    .lvl4 { fill: #9effc6; }

    @keyframes bomberman-route {
      0% { transform: translate(112.5px, 85.0px); }
      12% { transform: translate(112.5px, 85.0px); }
      25% { transform: translate(237.5px, 60.0px); }
      38% { transform: translate(375.0px, 97.5px); }
      51% { transform: translate(512.5px, 72.5px); }
      64% { transform: translate(625.0px, 47.5px); }
      88% { transform: translate(625.0px, 47.5px); }
      100% { transform: translate(112.5px, 85.0px); }
    }
    .bomberman-char {
      animation: bomberman-route 16s infinite ease-in-out;
      transform-style: preserve-3d;
    }

    @keyframes brick-wave-0-clear {
      0%, 17.9% { opacity: 1; }
      18%, 95% { opacity: 0; }
      100% { opacity: 1; }
    }
    .brick-wave-0 {
      animation: brick-wave-0-clear 16s infinite steps(1);
    }

    @keyframes bomb-marker-0-blink {
      0%, 13.9% { opacity: 0; transform: scale(0.6); }
      14.0%, 17.8% { opacity: 1; transform: scale(1); }
      18%, 100% { opacity: 0; transform: scale(0.6); }
    }
    .bomb-marker-0 {
      animation: bomb-marker-0-blink 16s infinite steps(1);
    }

    @keyframes blast-wave-0-pop {
      0%, 17.9% { opacity: 0; transform: scale(0.2); }
      18%, 20.0% { opacity: 1; transform: scale(1); }
      25%, 100% { opacity: 0; transform: scale(1.15); }
    }
    .blast-wave-0 {
      animation: blast-wave-0-pop 16s infinite ease-out;
    }
    @keyframes brick-wave-1-clear {
      0%, 30.9% { opacity: 1; }
      31%, 95% { opacity: 0; }
      100% { opacity: 1; }
    }
    .brick-wave-1 {
      animation: brick-wave-1-clear 16s infinite steps(1);
    }

    @keyframes bomb-marker-1-blink {
      0%, 26.9% { opacity: 0; transform: scale(0.6); }
      27.0%, 30.8% { opacity: 1; transform: scale(1); }
      31%, 100% { opacity: 0; transform: scale(0.6); }
    }
    .bomb-marker-1 {
      animation: bomb-marker-1-blink 16s infinite steps(1);
    }

    @keyframes blast-wave-1-pop {
      0%, 30.9% { opacity: 0; transform: scale(0.2); }
      31%, 33.0% { opacity: 1; transform: scale(1); }
      38%, 100% { opacity: 0; transform: scale(1.15); }
    }
    .blast-wave-1 {
      animation: blast-wave-1-pop 16s infinite ease-out;
    }
    @keyframes brick-wave-2-clear {
      0%, 43.9% { opacity: 1; }
      44%, 95% { opacity: 0; }
      100% { opacity: 1; }
    }
    .brick-wave-2 {
      animation: brick-wave-2-clear 16s infinite steps(1);
    }

    @keyframes bomb-marker-2-blink {
      0%, 39.9% { opacity: 0; transform: scale(0.6); }
      40.0%, 43.8% { opacity: 1; transform: scale(1); }
      44%, 100% { opacity: 0; transform: scale(0.6); }
    }
    .bomb-marker-2 {
      animation: bomb-marker-2-blink 16s infinite steps(1);
    }

    @keyframes blast-wave-2-pop {
      0%, 43.9% { opacity: 0; transform: scale(0.2); }
      44%, 46.0% { opacity: 1; transform: scale(1); }
      51%, 100% { opacity: 0; transform: scale(1.15); }
    }
    .blast-wave-2 {
      animation: blast-wave-2-pop 16s infinite ease-out;
    }
    @keyframes brick-wave-3-clear {
      0%, 56.9% { opacity: 1; }
      57%, 95% { opacity: 0; }
      100% { opacity: 1; }
    }
    .brick-wave-3 {
      animation: brick-wave-3-clear 16s infinite steps(1);
    }

    @keyframes bomb-marker-3-blink {
      0%, 52.9% { opacity: 0; transform: scale(0.6); }
      53.0%, 56.8% { opacity: 1; transform: scale(1); }
      57%, 100% { opacity: 0; transform: scale(0.6); }
    }
    .bomb-marker-3 {
      animation: bomb-marker-3-blink 16s infinite steps(1);
    }

    @keyframes blast-wave-3-pop {
      0%, 56.9% { opacity: 0; transform: scale(0.2); }
      57%, 59.0% { opacity: 1; transform: scale(1); }
      64%, 100% { opacity: 0; transform: scale(1.15); }
    }
    .blast-wave-3 {
      animation: blast-wave-3-pop 16s infinite ease-out;
    }
    @keyframes brick-wave-4-clear {
      0%, 69.9% { opacity: 1; }
      70%, 95% { opacity: 0; }
      100% { opacity: 1; }
    }
    .brick-wave-4 {
      animation: brick-wave-4-clear 16s infinite steps(1);
    }

    @keyframes bomb-marker-4-blink {
      0%, 65.9% { opacity: 0; transform: scale(0.6); }
      66.0%, 69.8% { opacity: 1; transform: scale(1); }
      70%, 100% { opacity: 0; transform: scale(0.6); }
    }
    .bomb-marker-4 {
      animation: bomb-marker-4-blink 16s infinite steps(1);
    }

    @keyframes blast-wave-4-pop {
      0%, 69.9% { opacity: 0; transform: scale(0.2); }
      70%, 72.0% { opacity: 1; transform: scale(1); }
      78%, 100% { opacity: 0; transform: scale(1.15); }
    }
    .blast-wave-4 {
      animation: blast-wave-4-pop 16s infinite ease-out;
    }

    @keyframes stat-pulse {
      0%, 100% { fill: #9effc6; }
      50% { fill: #3ee27b; }
    }
    .score-glowing { animation: stat-pulse 3s infinite; }
  </style>

  <rect x="5" y="5" width="810" height="170" rx="12" ry="12" fill="#11111b" stroke="#313244" stroke-width="4" filter="url(#screen-glow)" />
  <rect x="12" y="12" width="796" height="156" rx="8" ry="8" fill="#181825" />
  <rect x="12" y="12" width="796" height="156" rx="8" ry="8" fill="url(#scanlines)" pointer-events="none" />

  <rect x="20" y="25" width="665" height="92" rx="4" fill="#0f0f15" stroke="#313244" stroke-width="1.5" />
  <rect x="20" y="25" width="665" height="92" rx="4" fill="url(#grid-dots)" />

  <text x="25" y="132" fill="#585b70" font-size="8" class="retro-font">Jul</text>
  <text x="120" y="132" fill="#585b70" font-size="8" class="retro-font">Sep</text>
  <text x="220" y="132" fill="#585b70" font-size="8" class="retro-font">Nov</text>
  <text x="320" y="132" fill="#585b70" font-size="8" class="retro-font">Jan</text>
  <text x="420" y="132" fill="#585b70" font-size="8" class="retro-font">Mar</text>
  <text x="520" y="132" fill="#585b70" font-size="8" class="retro-font">May</text>
  <text x="620" y="132" fill="#585b70" font-size="8" class="retro-font">Jul</text>

  <!-- Contribution Grid Blocks -->
  <rect x="20.0" y="30" width="137.5" height="87.5" fill="url(#brick-field)" class="brick-wave brick-wave-0" />
    <rect x="157.5" y="30" width="137.5" height="87.5" fill="url(#brick-field)" class="brick-wave brick-wave-1" />
    <rect x="295.0" y="30" width="137.5" height="87.5" fill="url(#brick-field)" class="brick-wave brick-wave-2" />
    <rect x="432.5" y="30" width="137.5" height="87.5" fill="url(#brick-field)" class="brick-wave brick-wave-3" />
    <rect x="570.0" y="30" width="112.5" height="87.5" fill="url(#brick-field)" class="brick-wave brick-wave-4" />
    <use href="#mini-cube" x="20.0" y="42.5" class="lvl1" />
    <use href="#mini-cube" x="32.5" y="42.5" class="lvl1" />
    <use href="#mini-cube" x="32.5" y="105.0" class="lvl1" />
    <use href="#mini-cube" x="45.0" y="80.0" class="lvl1" />
    <use href="#mini-cube" x="57.5" y="30.0" class="lvl1" />
    <use href="#mini-cube" x="57.5" y="42.5" class="lvl1" />
    <use href="#mini-cube" x="57.5" y="80.0" class="lvl2" />
    <use href="#mini-cube" x="57.5" y="105.0" class="lvl4" />
    <use href="#mini-cube" x="70.0" y="30.0" class="lvl3" />
    <use href="#mini-cube" x="70.0" y="42.5" class="lvl1" />
    <use href="#mini-cube" x="70.0" y="67.5" class="lvl2" />
    <use href="#mini-cube" x="70.0" y="80.0" class="lvl1" />
    <use href="#mini-cube" x="70.0" y="92.5" class="lvl1" />
    <use href="#mini-cube" x="82.5" y="55.0" class="lvl4" />
    <use href="#mini-cube" x="95.0" y="30.0" class="lvl1" />
    <use href="#mini-cube" x="95.0" y="55.0" class="lvl2" />
    <use href="#mini-cube" x="95.0" y="67.5" class="lvl2" />
    <use href="#mini-cube" x="95.0" y="80.0" class="lvl3" />
    <use href="#mini-cube" x="95.0" y="92.5" class="lvl2" />
    <use href="#mini-cube" x="95.0" y="105.0" class="lvl4" />
    <use href="#mini-cube" x="107.5" y="42.5" class="lvl1" />
    <use href="#mini-cube" x="107.5" y="55.0" class="lvl3" />
    <use href="#mini-cube" x="107.5" y="67.5" class="lvl1" />
    <use href="#mini-cube" x="107.5" y="92.5" class="lvl1" />
    <use href="#mini-cube" x="120.0" y="30.0" class="lvl1" />
    <use href="#mini-cube" x="120.0" y="42.5" class="lvl1" />
    <use href="#mini-cube" x="120.0" y="92.5" class="lvl1" />
    <use href="#mini-cube" x="132.5" y="67.5" class="lvl1" />
    <use href="#mini-cube" x="145.0" y="42.5" class="lvl1" />
    <use href="#mini-cube" x="157.5" y="30.0" class="lvl2" />
    <use href="#mini-cube" x="157.5" y="42.5" class="lvl1" />
    <use href="#mini-cube" x="157.5" y="67.5" class="lvl1" />
    <use href="#mini-cube" x="157.5" y="80.0" class="lvl1" />
    <use href="#mini-cube" x="170.0" y="30.0" class="lvl2" />
    <use href="#mini-cube" x="170.0" y="55.0" class="lvl1" />
    <use href="#mini-cube" x="170.0" y="105.0" class="lvl2" />
    <use href="#mini-cube" x="182.5" y="80.0" class="lvl1" />
    <use href="#mini-cube" x="182.5" y="105.0" class="lvl3" />
    <use href="#mini-cube" x="195.0" y="30.0" class="lvl2" />
    <use href="#mini-cube" x="195.0" y="42.5" class="lvl1" />
    <use href="#mini-cube" x="195.0" y="55.0" class="lvl1" />
    <use href="#mini-cube" x="195.0" y="67.5" class="lvl2" />
    <use href="#mini-cube" x="195.0" y="92.5" class="lvl1" />
    <use href="#mini-cube" x="195.0" y="105.0" class="lvl2" />
    <use href="#mini-cube" x="207.5" y="30.0" class="lvl1" />
    <use href="#mini-cube" x="207.5" y="67.5" class="lvl1" />
    <use href="#mini-cube" x="232.5" y="30.0" class="lvl1" />
    <use href="#mini-cube" x="232.5" y="80.0" class="lvl1" />
    <use href="#mini-cube" x="232.5" y="105.0" class="lvl1" />
    <use href="#mini-cube" x="245.0" y="67.5" class="lvl1" />
    <use href="#mini-cube" x="245.0" y="80.0" class="lvl1" />
    <use href="#mini-cube" x="245.0" y="92.5" class="lvl1" />
    <use href="#mini-cube" x="245.0" y="105.0" class="lvl1" />
    <use href="#mini-cube" x="257.5" y="30.0" class="lvl1" />
    <use href="#mini-cube" x="257.5" y="67.5" class="lvl3" />
    <use href="#mini-cube" x="257.5" y="80.0" class="lvl1" />
    <use href="#mini-cube" x="257.5" y="92.5" class="lvl1" />
    <use href="#mini-cube" x="270.0" y="30.0" class="lvl1" />
    <use href="#mini-cube" x="270.0" y="55.0" class="lvl2" />
    <use href="#mini-cube" x="270.0" y="67.5" class="lvl2" />
    <use href="#mini-cube" x="270.0" y="92.5" class="lvl1" />
    <use href="#mini-cube" x="282.5" y="30.0" class="lvl1" />
    <use href="#mini-cube" x="282.5" y="55.0" class="lvl2" />
    <use href="#mini-cube" x="282.5" y="67.5" class="lvl2" />
    <use href="#mini-cube" x="282.5" y="80.0" class="lvl2" />
    <use href="#mini-cube" x="282.5" y="92.5" class="lvl1" />
    <use href="#mini-cube" x="282.5" y="105.0" class="lvl2" />
    <use href="#mini-cube" x="295.0" y="55.0" class="lvl1" />
    <use href="#mini-cube" x="307.5" y="42.5" class="lvl2" />
    <use href="#mini-cube" x="307.5" y="80.0" class="lvl1" />
    <use href="#mini-cube" x="320.0" y="42.5" class="lvl1" />
    <use href="#mini-cube" x="320.0" y="92.5" class="lvl4" />
    <use href="#mini-cube" x="320.0" y="105.0" class="lvl1" />
    <use href="#mini-cube" x="332.5" y="30.0" class="lvl1" />
    <use href="#mini-cube" x="332.5" y="55.0" class="lvl1" />
    <use href="#mini-cube" x="332.5" y="80.0" class="lvl3" />
    <use href="#mini-cube" x="332.5" y="105.0" class="lvl1" />
    <use href="#mini-cube" x="345.0" y="30.0" class="lvl1" />
    <use href="#mini-cube" x="345.0" y="42.5" class="lvl2" />
    <use href="#mini-cube" x="345.0" y="55.0" class="lvl2" />
    <use href="#mini-cube" x="345.0" y="67.5" class="lvl2" />
    <use href="#mini-cube" x="345.0" y="105.0" class="lvl1" />
    <use href="#mini-cube" x="357.5" y="30.0" class="lvl1" />
    <use href="#mini-cube" x="357.5" y="80.0" class="lvl1" />
    <use href="#mini-cube" x="357.5" y="92.5" class="lvl1" />
    <use href="#mini-cube" x="357.5" y="105.0" class="lvl3" />
    <use href="#mini-cube" x="370.0" y="30.0" class="lvl1" />
    <use href="#mini-cube" x="370.0" y="42.5" class="lvl1" />
    <use href="#mini-cube" x="370.0" y="55.0" class="lvl1" />
    <use href="#mini-cube" x="370.0" y="80.0" class="lvl2" />
    <use href="#mini-cube" x="370.0" y="92.5" class="lvl2" />
    <use href="#mini-cube" x="370.0" y="105.0" class="lvl3" />
    <use href="#mini-cube" x="382.5" y="30.0" class="lvl3" />
    <use href="#mini-cube" x="382.5" y="42.5" class="lvl1" />
    <use href="#mini-cube" x="382.5" y="55.0" class="lvl2" />
    <use href="#mini-cube" x="382.5" y="67.5" class="lvl1" />
    <use href="#mini-cube" x="382.5" y="80.0" class="lvl1" />
    <use href="#mini-cube" x="382.5" y="92.5" class="lvl2" />
    <use href="#mini-cube" x="395.0" y="30.0" class="lvl1" />
    <use href="#mini-cube" x="395.0" y="55.0" class="lvl1" />
    <use href="#mini-cube" x="395.0" y="80.0" class="lvl2" />
    <use href="#mini-cube" x="407.5" y="92.5" class="lvl1" />
    <use href="#mini-cube" x="420.0" y="55.0" class="lvl1" />
    <use href="#mini-cube" x="420.0" y="92.5" class="lvl2" />
    <use href="#mini-cube" x="420.0" y="105.0" class="lvl1" />
    <use href="#mini-cube" x="432.5" y="30.0" class="lvl1" />
    <use href="#mini-cube" x="432.5" y="55.0" class="lvl2" />
    <use href="#mini-cube" x="432.5" y="80.0" class="lvl1" />
    <use href="#mini-cube" x="432.5" y="92.5" class="lvl1" />
    <use href="#mini-cube" x="432.5" y="105.0" class="lvl1" />
    <use href="#mini-cube" x="445.0" y="30.0" class="lvl1" />
    <use href="#mini-cube" x="445.0" y="67.5" class="lvl1" />
    <use href="#mini-cube" x="457.5" y="42.5" class="lvl2" />
    <use href="#mini-cube" x="457.5" y="67.5" class="lvl1" />
    <use href="#mini-cube" x="457.5" y="80.0" class="lvl1" />
    <use href="#mini-cube" x="457.5" y="92.5" class="lvl1" />
    <use href="#mini-cube" x="457.5" y="105.0" class="lvl1" />
    <use href="#mini-cube" x="470.0" y="30.0" class="lvl1" />
    <use href="#mini-cube" x="470.0" y="42.5" class="lvl2" />
    <use href="#mini-cube" x="470.0" y="55.0" class="lvl4" />
    <use href="#mini-cube" x="470.0" y="67.5" class="lvl3" />
    <use href="#mini-cube" x="470.0" y="80.0" class="lvl2" />
    <use href="#mini-cube" x="470.0" y="92.5" class="lvl2" />
    <use href="#mini-cube" x="470.0" y="105.0" class="lvl1" />
    <use href="#mini-cube" x="482.5" y="30.0" class="lvl1" />
    <use href="#mini-cube" x="482.5" y="42.5" class="lvl2" />
    <use href="#mini-cube" x="482.5" y="55.0" class="lvl1" />
    <use href="#mini-cube" x="482.5" y="67.5" class="lvl1" />
    <use href="#mini-cube" x="482.5" y="80.0" class="lvl3" />
    <use href="#mini-cube" x="482.5" y="105.0" class="lvl1" />
    <use href="#mini-cube" x="495.0" y="67.5" class="lvl1" />
    <use href="#mini-cube" x="495.0" y="80.0" class="lvl1" />
    <use href="#mini-cube" x="495.0" y="105.0" class="lvl1" />
    <use href="#mini-cube" x="507.5" y="92.5" class="lvl1" />
    <use href="#mini-cube" x="532.5" y="30.0" class="lvl1" />
    <use href="#mini-cube" x="532.5" y="42.5" class="lvl1" />
    <use href="#mini-cube" x="532.5" y="55.0" class="lvl4" />
    <use href="#mini-cube" x="532.5" y="80.0" class="lvl1" />
    <use href="#mini-cube" x="532.5" y="92.5" class="lvl1" />
    <use href="#mini-cube" x="545.0" y="67.5" class="lvl4" />
    <use href="#mini-cube" x="545.0" y="80.0" class="lvl1" />
    <use href="#mini-cube" x="545.0" y="92.5" class="lvl2" />
    <use href="#mini-cube" x="557.5" y="55.0" class="lvl1" />
    <use href="#mini-cube" x="557.5" y="67.5" class="lvl3" />
    <use href="#mini-cube" x="557.5" y="80.0" class="lvl4" />
    <use href="#mini-cube" x="557.5" y="92.5" class="lvl2" />
    <use href="#mini-cube" x="557.5" y="105.0" class="lvl3" />
    <use href="#mini-cube" x="570.0" y="30.0" class="lvl2" />
    <use href="#mini-cube" x="570.0" y="55.0" class="lvl1" />
    <use href="#mini-cube" x="570.0" y="67.5" class="lvl1" />
    <use href="#mini-cube" x="570.0" y="80.0" class="lvl1" />
    <use href="#mini-cube" x="570.0" y="92.5" class="lvl1" />
    <use href="#mini-cube" x="570.0" y="105.0" class="lvl1" />
    <use href="#mini-cube" x="582.5" y="30.0" class="lvl1" />
    <use href="#mini-cube" x="595.0" y="105.0" class="lvl1" />
    <use href="#mini-cube" x="607.5" y="30.0" class="lvl1" />
    <use href="#mini-cube" x="607.5" y="42.5" class="lvl1" />
    <use href="#mini-cube" x="607.5" y="55.0" class="lvl1" />
    <use href="#mini-cube" x="607.5" y="80.0" class="lvl1" />
    <use href="#mini-cube" x="607.5" y="92.5" class="lvl1" />
    <use href="#mini-cube" x="620.0" y="42.5" class="lvl2" />
    <use href="#mini-cube" x="620.0" y="67.5" class="lvl2" />
    <use href="#mini-cube" x="620.0" y="80.0" class="lvl1" />
    <use href="#mini-cube" x="620.0" y="92.5" class="lvl3" />
    <use href="#mini-cube" x="632.5" y="30.0" class="lvl1" />
    <use href="#mini-cube" x="632.5" y="42.5" class="lvl1" />
    <use href="#mini-cube" x="632.5" y="105.0" class="lvl3" />
    <use href="#mini-cube" x="645.0" y="30.0" class="lvl1" />
    <use href="#mini-cube" x="645.0" y="42.5" class="lvl1" />
    <use href="#mini-cube" x="645.0" y="92.5" class="lvl1" />
    <use href="#mini-cube" x="645.0" y="105.0" class="lvl1" />
    <use href="#mini-cube" x="657.5" y="30.0" class="lvl1" />
    <use href="#mini-cube" x="657.5" y="42.5" class="lvl4" />
    <use href="#mini-cube" x="657.5" y="55.0" class="lvl4" />
    <use href="#mini-cube" x="657.5" y="67.5" class="lvl2" />
    <use href="#mini-cube" x="657.5" y="80.0" class="lvl2" />
    <use href="#mini-cube" x="657.5" y="92.5" class="lvl1" />
    <use href="#mini-cube" x="657.5" y="105.0" class="lvl1" />
    <use href="#mini-cube" x="670.0" y="30.0" class="lvl2" />

  <!-- Bomb markers and blast waves sweep across the grid in five lightweight groups -->
  <g class="bomb-marker bomb-marker-0" transform-origin="112.5px 85.0px">
    <circle cx="112.5" cy="85.0" r="4.5" fill="#313244" />
    <path d="M 113.0 80.5 L 115.0 77.5" stroke="#ffffff" stroke-width="1" />
    <circle cx="116.0" cy="76.5" r="1" fill="#f9e2af" />
  </g>
  <g class="bomb-marker bomb-marker-1" transform-origin="237.5px 60.0px">
    <circle cx="237.5" cy="60.0" r="4.5" fill="#313244" />
    <path d="M 238.0 55.5 L 240.0 52.5" stroke="#ffffff" stroke-width="1" />
    <circle cx="241.0" cy="51.5" r="1" fill="#f9e2af" />
  </g>
  <g class="bomb-marker bomb-marker-2" transform-origin="375.0px 97.5px">
    <circle cx="375.0" cy="97.5" r="4.5" fill="#313244" />
    <path d="M 375.5 93.0 L 377.5 90.0" stroke="#ffffff" stroke-width="1" />
    <circle cx="378.5" cy="89.0" r="1" fill="#f9e2af" />
  </g>
  <g class="bomb-marker bomb-marker-3" transform-origin="512.5px 72.5px">
    <circle cx="512.5" cy="72.5" r="4.5" fill="#313244" />
    <path d="M 513.0 68.0 L 515.0 65.0" stroke="#ffffff" stroke-width="1" />
    <circle cx="516.0" cy="64.0" r="1" fill="#f9e2af" />
  </g>
  <g class="bomb-marker bomb-marker-4" transform-origin="625.0px 47.5px">
    <circle cx="625.0" cy="47.5" r="4.5" fill="#313244" />
    <path d="M 625.5 43.0 L 627.5 40.0" stroke="#ffffff" stroke-width="1" />
    <circle cx="628.5" cy="39.0" r="1" fill="#f9e2af" />
  </g>
  <g class="blast-wave blast-wave-0" transform-origin="112.5px 85.0px" filter="url(#neon-glow)">
    <rect x="81.2" y="81.0" width="62.5" height="8" rx="2" fill="#ff7043" />
    <rect x="86.2" y="82.0" width="52.5" height="6" rx="2" fill="#ffca28" />
    <rect x="108.5" y="53.8" width="8" height="62.5" rx="2" fill="#ff7043" />
    <rect x="109.5" y="58.8" width="6" height="52.5" rx="2" fill="#ffca28" />
  </g>
  <g class="blast-wave blast-wave-1" transform-origin="237.5px 60.0px" filter="url(#neon-glow)">
    <rect x="206.2" y="56.0" width="62.5" height="8" rx="2" fill="#ff7043" />
    <rect x="211.2" y="57.0" width="52.5" height="6" rx="2" fill="#ffca28" />
    <rect x="233.5" y="28.8" width="8" height="62.5" rx="2" fill="#ff7043" />
    <rect x="234.5" y="33.8" width="6" height="52.5" rx="2" fill="#ffca28" />
  </g>
  <g class="blast-wave blast-wave-2" transform-origin="375.0px 97.5px" filter="url(#neon-glow)">
    <rect x="343.8" y="93.5" width="62.5" height="8" rx="2" fill="#ff7043" />
    <rect x="348.8" y="94.5" width="52.5" height="6" rx="2" fill="#ffca28" />
    <rect x="371.0" y="66.2" width="8" height="62.5" rx="2" fill="#ff7043" />
    <rect x="372.0" y="71.2" width="6" height="52.5" rx="2" fill="#ffca28" />
  </g>
  <g class="blast-wave blast-wave-3" transform-origin="512.5px 72.5px" filter="url(#neon-glow)">
    <rect x="481.2" y="68.5" width="62.5" height="8" rx="2" fill="#ff7043" />
    <rect x="486.2" y="69.5" width="52.5" height="6" rx="2" fill="#ffca28" />
    <rect x="508.5" y="41.2" width="8" height="62.5" rx="2" fill="#ff7043" />
    <rect x="509.5" y="46.2" width="6" height="52.5" rx="2" fill="#ffca28" />
  </g>
  <g class="blast-wave blast-wave-4" transform-origin="625.0px 47.5px" filter="url(#neon-glow)">
    <rect x="593.8" y="43.5" width="62.5" height="8" rx="2" fill="#ff7043" />
    <rect x="598.8" y="44.5" width="52.5" height="6" rx="2" fill="#ffca28" />
    <rect x="621.0" y="16.2" width="8" height="62.5" rx="2" fill="#ff7043" />
    <rect x="622.0" y="21.2" width="6" height="52.5" rx="2" fill="#ffca28" />
  </g>

  <!-- walking Bomberman -->
  <g class="bomberman-char">
    <g class="glitch-monitor">
      <rect x="-3" y="-8" width="8" height="8" rx="2" fill="#ffffff" stroke="#11111b" stroke-width="0.8" />
      <circle cx="1" cy="-10" r="1.5" fill="#f38ba8" stroke="#11111b" stroke-width="0.5" />
      <ellipse cx="-0.5" cy="-4" rx="0.5" ry="1.5" fill="#000000" />
      <ellipse cx="2.5" cy="-4" rx="0.5" ry="1.5" fill="#000000" />
      <rect x="-2" y="0" width="6" height="5" fill="#89b4fa" stroke="#11111b" stroke-width="0.8" />
      <rect x="-2" y="3" width="6" height="1.5" fill="#f9e2af" />
    </g>
  </g>

  <!-- Stats HUD Display -->
  <g transform="translate(695, 25)">
    <rect x="0" y="0" width="105" height="42" rx="4" fill="#11111b" stroke="#313244" stroke-width="1.5" />
    <text x="10" y="14" fill="#a6adc8" font-size="7.5" class="retro-font">SCORE</text>
    <text x="10" y="32" fill="#fab387" font-size="14" class="retro-font score-glowing">002388</text>
  </g>

  <g transform="translate(695, 75)">
    <rect x="0" y="0" width="105" height="42" rx="4" fill="#11111b" stroke="#313244" stroke-width="1.5" />
    <text x="10" y="14" fill="#a6adc8" font-size="7.5" class="retro-font">YEARLY</text>
    <text x="10" y="32" fill="#a6e3a1" font-size="14" class="retro-font">1,157</text>
  </g>

  <circle cx="705" cy="136" r="3" fill="#f38ba8" />
  <circle cx="717" cy="136" r="3" fill="#f9e2af" />
  <circle cx="729" cy="136" r="3" fill="#a6e3a1" />
  <text x="795" y="140" fill="#585b70" font-size="8.5" class="retro-font" text-anchor="end">LVL 04</text>
</svg>
